HIERARCHY
ROOT root
{
	OFFSET	0	13.1	24.9
	CHANNELS 6  Xposition Yposition Zposition Xrotation Yrotation Zrotation
	JOINT spine_1
	{
		OFFSET	0	9.99999	0
		CHANNELS 3  Xrotation Yrotation Zrotation
		JOINT spine_2
		{
			OFFSET	0	112	-10
			CHANNELS 3  Xrotation Yrotation Zrotation
			JOINT spine_3
			{
				OFFSET	0	206.5	19.3
				CHANNELS 3  Xrotation Yrotation Zrotation
				JOINT spine_4
				{
					OFFSET	0	110.4	14.6
					CHANNELS 3  Xrotation Yrotation Zrotation
					JOINT neck_1
					{
						OFFSET	0	71.8	-50.3
						CHANNELS 3  Xrotation Yrotation Zrotation
						JOINT neck_2
						{
							OFFSET	0	86.2	-25.8
							CHANNELS 3  Xrotation Yrotation Zrotation
							JOINT head_ee
							{
								OFFSET	0	179.8	-8.7
								CHANNELS 3  Xrotation Yrotation Zrotation
								End Site
								{
									OFFSET	1	0	0
								}
							}
						}
					}
					JOINT left_clavicle
					{
						OFFSET	-43.2	22.4	-70.8
						CHANNELS 3  Xrotation Yrotation Zrotation
						JOINT left_shoulder
						{
							OFFSET	-93.9	-5.79999	48.7
							CHANNELS 3  Xrotation Yrotation Zrotation
							JOINT left_elbow
							{
								OFFSET	-291.4	-30.8	15.2
								CHANNELS 3  Xrotation Yrotation Zrotation
								JOINT left_lowarm_twist
								{
									OFFSET	-110.7	-3.89999	13.6
									CHANNELS 3  Xrotation Yrotation Zrotation
									JOINT left_hand
									{
										OFFSET	-110.7	-3.89999	13.6
										CHANNELS 3  Xrotation Yrotation Zrotation
										JOINT left_ee
										{
											OFFSET	-80.8	-5.10001	12.1
											CHANNELS 3  Xrotation Yrotation Zrotation
											End Site
											{
												OFFSET	1	0	0
											}
										}
									}
								}
							}
						}
					}
					JOINT right_clavicle
					{
						OFFSET	43.2	22.4	-70.8
						CHANNELS 3  Xrotation Yrotation Zrotation
						JOINT right_shoulder
						{
							OFFSET	93.9	-5.79999	48.7
							CHANNELS 3  Xrotation Yrotation Zrotation
							JOINT right_elbow
							{
								OFFSET	291.4	-30.8	15.2
								CHANNELS 3  Xrotation Yrotation Zrotation
								JOINT right_lowarm_twist
								{
									OFFSET	110.7	-3.89999	13.6
									CHANNELS 3  Xrotation Yrotation Zrotation
									JOINT right_hand
									{
										OFFSET	110.7	-3.89999	13.6
										CHANNELS 3  Xrotation Yrotation Zrotation
										JOINT right_ee
										{
											OFFSET	80.8	-5.10001	12.1
											CHANNELS 3  Xrotation Yrotation Zrotation
											End Site
											{
												OFFSET	1	0	0
											}
										}
									}
								}
							}
						}
					}
				}
			}
		}
	}
	JOINT left_hip
	{
		OFFSET	-82.8	-127.5	0.300001
		CHANNELS 3  Xrotation Yrotation Zrotation
		JOINT left_knee
		{
			OFFSET	-28.2	-396.7	2.2
			CHANNELS 3  Xrotation Yrotation Zrotation
			JOINT left_ankle
			{
				OFFSET	-11.7	-411.3	35.4
				CHANNELS 3  Xrotation Yrotation Zrotation
				JOINT left_toes
				{
					OFFSET	0	-60	-88.6
					CHANNELS 3  Xrotation Yrotation Zrotation
					JOINT left_foot_ee
					{
						OFFSET	-22.5	-16.5	-42.2
						CHANNELS 3  Xrotation Yrotation Zrotation
						End Site
						{
							OFFSET	1	0	0
						}
					}
				}
			}
		}
	}
	JOINT right_hip
	{
		OFFSET	82.8	-127.5	0.300001
		CHANNELS 3  Xrotation Yrotation Zrotation
		JOINT right_knee
		{
			OFFSET	28.2	-396.7	2.2
			CHANNELS 3  Xrotation Yrotation Zrotation
			JOINT right_ankle
			{
				OFFSET	11.7	-411.3	35.4
				CHANNELS 3  Xrotation Yrotation Zrotation
				JOINT right_toes
				{
					OFFSET	0	-60	-88.6
					CHANNELS 3  Xrotation Yrotation Zrotation
					JOINT right_foot_ee
					{
						OFFSET	22.5	-16.5	-42.2
						CHANNELS 3  Xrotation Yrotation Zrotation
						End Site
						{
							OFFSET	1	0	0
						}
					}
				}
			}
		}
	}
}
MOTION
Frames: 6
Frame Time: 0.02
1232.30162564 742.672 -1773.28874117 -0.557956360655 40.3290731835 1.03136936013 1.88286 0.260316 0.159701 1.88284 0.249626 0.175942 1.88362 0.21434 0.217548 1.88363 0.246008 0.180967 -4.00527 1.83594 -6.49174 -3.84227 8.32722 -6.40935 -0.0 0.0 -0.0 6.89972 1.67182 13.3899 -7.66087 26.4333 62.2544 0.318393 -8.96319 0.0249552 -6.1777 -0.258191 0.745938 7.08583 -25.3943 37.1393 -0.0 0.0 -0.0 10.6364 9.31536 -21.2357 -5.54015 -2.26045 -54.0668 0.554995 15.3726 -0.0749037 22.4756 -0.237042 2.84292 2.58814 11.0472 -12.8641 0.0 0.0 0.0 16.3299 -12.109 -5.90886 -53.0908 -1.50187 7.72171 15.6972 -20.4542 -2.4708 0.933933 -0.0 -0.0 -0.0 0.0 -0.0 10.0163 -7.50296 -0.40527 -15.4321 -0.322068 -2.33919 20.5906 -8.04265 2.80404 -13.1108 0.0 0.0 0.0 0.0 0.0 
1214.63746887 738.214 -1788.11217431 -0.637730359426 42.1732474207 1.93890414529 2.25123 0.199008 -0.160407 2.25122 0.208812 -0.147418 2.25068 0.231014 -0.109394 2.25072 0.210838 -0.144506 -4.21231 1.83805 -6.01215 -4.0727 7.9501 -5.89328 -0.0 0.0 -0.0 6.44841 1.6541 12.5103 -10.2312 29.3825 62.9163 0.228593 -6.46071 0.0129019 -5.15877 -0.210079 0.624862 6.94092 -25.6606 35.8072 -0.0 0.0 -0.0 10.7621 11.3749 -21.4946 -3.83168 -0.810573 -51.237 0.669255 18.3419 -0.108049 21.9205 -0.244693 2.77242 2.64409 12.6514 -12.5197 0.0 0.0 0.0 26.7479 -12.6545 -6.39307 -59.6646 -2.16388 8.48839 11.8333 -18.4487 -1.86221 -0.251425 0.0 0.0 -0.0 0.0 -0.0 8.27532 -7.32962 -1.69526 -15.239 -0.321955 -2.30955 20.3736 -8.9324 2.77833 -13.0034 0.0 0.0 0.0 0.0 0.0 
1213.50761622 738.214 -1787.54119724 -0.639829396964 42.380318151 1.9420243985 2.25123 0.199008 -0.160407 2.25122 0.208812 -0.147418 2.25068 0.231014 -0.109394 2.25072 0.210838 -0.144506 -4.21231 1.83805 -6.01215 -4.0727 7.9501 -5.89328 -0.0 0.0 -0.0 6.44841 1.6541 12.5103 -10.2312 29.3825 62.9163 0.228593 -6.46071 0.0129019 -5.15877 -0.210079 0.624862 6.94092 -25.6606 35.8072 -0.0 0.0 -0.0 10.7621 11.3749 -21.4946 -3.83168 -0.810573 -51.237 0.669255 18.3419 -0.108049 21.9205 -0.244693 2.77242 2.64409 12.6514 -12.5197 0.0 0.0 0.0 26.7479 -12.6545 -6.39307 -59.6646 -2.16388 8.48839 11.8333 -18.4487 -1.86221 -0.251425 0.0 0.0 -0.0 0.0 -0.0 8.27532 -7.32962 -1.69526 -15.239 -0.321955 -2.30955 20.3736 -8.9324 2.77833 -13.0034 0.0 0.0 0.0 0.0 0.0 
1179.87539354 736.047 -1794.08709133 -3.3257244582 45.1235107088 4.2938040709 2.62202 -0.0933911 -0.494091 2.62216 -0.061762 -0.499032 2.62267 0.0215366 -0.502378 2.62232 -0.0580739 -0.499474 -4.17016 1.89775 -5.12554 -4.06472 7.38455 -4.97135 -0.0 0.0 -0.0 6.24091 3.21081 12.1123 -14.018 31.4427 64.8755 0.248128 -7.00755 0.0151925 -2.34326 -0.0884346 0.286131 6.09201 -24.298 30.4708 -0.0 0.0 -0.0 10.9892 14.2119 -21.9333 -3.73696 1.04301 -48.1117 0.796744 21.5382 -0.151544 20.857 -0.257443 2.63718 2.87193 16.3573 -12.3434 0.0 0.0 0.0 39.9916 -11.8312 -5.17312 -64.2229 -2.67282 8.97366 4.33454 -14.0032 -0.677479 -1.66988 0.0 0.0 -0.0 0.0 -0.0 6.68454 -8.0118 -2.58194 -11.8386 -0.303608 -1.78823 22.6589 -9.42636 3.05781 -11.7838 0.0 0.0 0.0 0.0 0.0 
1161.46986758 735.628 -1800.79274814 -4.80700832853 47.1063325836 5.81021292443 2.77409 -0.16767 -0.666318 2.77433 -0.124932 -0.675636 2.77575 -0.0134256 -0.686958 2.77511 -0.121747 -0.676217 -4.63834 1.32724 -3.84954 -4.58188 5.3482 -3.71826 -0.0 0.0 -0.0 6.28827 3.64448 12.2023 -16.778 31.678 66.1458 0.340923 -9.58606 0.0285865 -2.25635 -0.0849458 0.275584 5.53392 -23.4708 26.981 -0.0 0.0 -0.0 10.8735 12.9677 -21.7103 -1.64031 1.94424 -46.665 0.886731 23.7137 -0.18617 20.7739 -0.258334 2.6266 3.87921 26.0903 -14.0782 0.0 0.0 0.0 42.7315 -11.3408 -5.3769 -61.1307 -2.32331 8.64883 1.87814 -13.259 -0.294219 -0.958547 0.0 0.0 -0.0 0.0 -0.0 4.55172 -9.56962 -3.52587 -7.61403 -0.237796 -1.14347 20.1812 -11.2655 2.76038 -11.1551 0.0 0.0 0.0 0.0 0.0 
1135.53255028 733.3 -1816.50342617 -10.3438599616 49.858648271 10.3284295096 3.79615 -0.197157 -0.643018 3.79637 -0.155841 -0.65426 3.79804 -0.0593636 -0.669939 3.79745 -0.164421 -0.652157 -4.371 -0.521534 -1.89744 -4.36053 0.488175 -2.03132 -0.0 0.0 -0.0 6.12774 6.12334 11.8877 -20.0012 29.5074 65.7363 0.404799 -11.3391 0.0401873 -2.64071 -0.100496 0.32219 4.21989 -20.3484 19.5773 -0.0 0.0 -0.0 11.2413 10.1651 -22.5734 2.3773 3.14095 -44.4004 0.98995 26.1225 -0.229668 18.1687 -0.278462 2.29448 4.09476 28.3577 -14.1955 0.0 0.0 0.0 45.6511 -9.01388 -5.40386 -51.179 -1.32639 7.48518 -4.95185 -11.5115 0.779791 -3.90862 0.0 0.0 -0.0 0.0 -0.0 4.01458 -12.1242 -4.8007 -2.73776 -0.103002 -0.407492 20.4585 -11.5413 2.79581 -8.98518 0.0 0.0 0.0 0.0 0.0 
